<svg width="51" height="51" viewBox="0 0 51 51" fill="none" xmlns="http://www.w3.org/2000/svg">
<path d="M34.225 33.581H30.446V27.7214C30.446 26.3241 30.4209 24.5253 28.4806 24.5253C26.5124 24.5253 26.2113 26.0477 26.2113 27.6196V33.5807H22.4323V21.5308H26.0601V23.1775H26.1109C26.474 22.5629 26.9986 22.0572 27.6289 21.7145C28.2592 21.3717 28.9716 21.2046 29.6903 21.231C33.5204 21.231 34.2266 23.7255 34.2266 26.9707L34.225 33.581ZM18.1684 19.8836C17.7347 19.8837 17.3107 19.7564 16.95 19.5179C16.5893 19.2794 16.3082 18.9403 16.1422 18.5436C15.9761 18.1468 15.9326 17.7103 16.0171 17.289C16.1017 16.8678 16.3105 16.4809 16.6171 16.1772C16.9238 15.8734 17.3145 15.6666 17.7398 15.5827C18.1652 15.4988 18.6062 15.5418 19.0069 15.706C19.4076 15.8703 19.7502 16.1486 19.9912 16.5056C20.2322 16.8626 20.3609 17.2824 20.361 17.7119C20.3611 17.997 20.3044 18.2794 20.1942 18.5429C20.0841 18.8063 19.9226 19.0457 19.719 19.2474C19.5154 19.449 19.2737 19.609 19.0076 19.7182C18.7416 19.8274 18.4564 19.8836 18.1684 19.8836ZM20.0579 33.581H16.275V21.5308H20.0579V33.581ZM36.1089 12.0662H14.3761C13.8829 12.0607 13.4075 12.2493 13.0546 12.5906C12.7017 12.9319 12.5002 13.398 12.4941 13.8864V35.4944C12.5 35.983 12.7014 36.4494 13.0543 36.7911C13.4072 37.1327 13.8826 37.3217 14.3761 37.3165H36.1089C36.6034 37.3227 37.0802 37.1342 37.4345 36.7926C37.7887 36.4509 37.9916 35.984 37.9984 35.4944V13.8848C37.9914 13.3954 37.7884 12.9288 37.4341 12.5875C37.0798 12.2462 36.6032 12.0582 36.1089 12.0646" fill="white"/>
<circle cx="25.5668" cy="25.1352" r="24.3811" stroke="white" stroke-width="1.50811"/>
</svg>
